STARTFONT 2.3
FONT -FontForge-Satisfy-Book-R-Normal--14-140-72-72-P-61-ISO10646-1
SIZE 14 72 72  4
FONTBOUNDINGBOX 17 21 -3 -7
COMMENT "Generated by fontforge, http://fontforge.sourceforge.net"
COMMENT "Copyright (c) 2011 by Font Diner, Inc. All rights reserved."
STARTPROPERTIES 40
FOUNDRY "FontForge"
FAMILY_NAME "Satisfy"
WEIGHT_NAME "Book"
SLANT "R"
SETWIDTH_NAME "Normal"
ADD_STYLE_NAME ""
PIXEL_SIZE 14
POINT_SIZE 140
RESOLUTION_X 72
RESOLUTION_Y 72
SPACING "P"
AVERAGE_WIDTH 61
CHARSET_REGISTRY "ISO10646"
CHARSET_ENCODING "1"
FONTNAME_REGISTRY ""
CHARSET_COLLECTIONS "ISO10646-1"
BITS_PER_PIXEL 4
FONT_NAME "Satisfy-Regular"
FACE_NAME "Satisfy Regular"
COPYRIGHT "Copyright (c) 2011 by Font Diner, Inc. All rights reserved."
FONT_VERSION "1.001"
FONT_ASCENT 11
FONT_DESCENT 3
UNDERLINE_POSITION -1
UNDERLINE_THICKNESS 1
X_HEIGHT 5
CAP_HEIGHT 10
RAW_ASCENT 799
RAW_DESCENT 200
NORM_SPACE 4
RELATIVE_WEIGHT 40
RELATIVE_SETWIDTH 50
SUPERSCRIPT_X 0
SUPERSCRIPT_Y 6
SUPERSCRIPT_SIZE 9
SUBSCRIPT_X 0
SUBSCRIPT_Y 1
SUBSCRIPT_SIZE 9
AVG_LOWERCASE_WIDTH 58
AVG_UPPERCASE_WIDTH 79
ENDPROPERTIES
CHARS 227
STARTCHAR space
ENCODING 32
SWIDTH 280 0
DWIDTH 4 0
BBX 1 1 0 0
BITMAP
00
ENDCHAR
STARTCHAR exclam
ENCODING 33
SWIDTH 249 0
DWIDTH 3 0
BBX 5 12 -1 -1
BITMAP
000230
000D90
001F50
004F10
008C00
00B800
00E400
03E000
069000
010000
2E7000
040000
ENDCHAR
STARTCHAR quotedbl
ENCODING 34
SWIDTH 249 0
DWIDTH 3 0
BBX 5 5 0 6
BITMAP
012120
0A6B50
0E3E10
3D4C00
586600
ENDCHAR
STARTCHAR numbersign
ENCODING 35
SWIDTH 417 0
DWIDTH 6 0
BBX 8 8 -1 1
BITMAP
00046360
000B3A40
06CFDFC2
02684900
07CBCB50
27D4E410
0594B000
03232000
ENDCHAR
STARTCHAR dollar
ENCODING 36
SWIDTH 292 0
DWIDTH 4 0
BBX 6 12 -1 -1
BITMAP
000010
000290
007AB4
02D058
03D084
00D300
007A00
130E10
770C20
2B8900
066000
010000
ENDCHAR
STARTCHAR percent
ENCODING 37
SWIDTH 574 0
DWIDTH 8 0
BBX 8 12 0 -1
BITMAP
00100002
07BB006A
2C0B22C1
670D1C30
68698700
1994B000
001C2870
00979795
04C1D076
1D32B0C2
9900DB80
30001200
ENDCHAR
STARTCHAR ampersand
ENCODING 38
SWIDTH 460 0
DWIDTH 6 0
BBX 7 12 -1 -1
BITMAP
00000520
0001A5A0
00077770
000BBC00
000CD100
006F6000
05ED8000
2E4AA000
8A07D050
A804F940
5FABF900
02427800
ENDCHAR
STARTCHAR quotesingle
ENCODING 39
SWIDTH 113 0
DWIDTH 2 0
BBX 3 5 0 6
BITMAP
0120
0A60
0E20
3D00
5800
ENDCHAR
STARTCHAR parenleft
ENCODING 40
SWIDTH 234 0
DWIDTH 3 0
BBX 5 14 0 -2
BITMAP
000130
001C20
009600
02D000
087000
0D2000
3D0000
6A0000
980000
A60000
B40000
950000
570000
030000
ENDCHAR
STARTCHAR parenright
ENCODING 41
SWIDTH 204 0
DWIDTH 3 0
BBX 5 14 -2 -2
BITMAP
000300
000850
000590
0005A0
0006A0
000890
000A60
000D20
002D00
007800
00D200
069000
2C1000
310000
ENDCHAR
STARTCHAR asterisk
ENCODING 42
SWIDTH 327 0
DWIDTH 5 0
BBX 6 6 0 5
BITMAP
000100
033E10
2E9A83
02CB62
0D6C60
020410
ENDCHAR
STARTCHAR plus
ENCODING 43
SWIDTH 350 0
DWIDTH 5 0
BBX 5 6 0 2
BITMAP
003300
00C400
69FA60
88D530
079000
031000
ENDCHAR
STARTCHAR comma
ENCODING 44
SWIDTH 200 0
DWIDTH 3 0
BBX 3 3 -1 -2
BITMAP
4E20
1D10
2400
ENDCHAR
STARTCHAR hyphen
ENCODING 45
SWIDTH 353 0
DWIDTH 5 0
BBX 6 2 -1 3
BITMAP
1BDDD8
132110
ENDCHAR
STARTCHAR period
ENCODING 46
SWIDTH 213 0
DWIDTH 3 0
BBX 3 2 -1 -1
BITMAP
4E50
1400
ENDCHAR
STARTCHAR slash
ENCODING 47
SWIDTH 262 0
DWIDTH 4 0
BBX 8 12 -2 -1
BITMAP
00000011
000002D1
00000A60
00003C00
0000B300
0005A000
000C2000
00790000
01D10000
08900000
2E200000
12000000
ENDCHAR
STARTCHAR zero
ENCODING 48
SWIDTH 489 0
DWIDTH 7 0
BBX 7 12 0 -1
BITMAP
00014000
003DA900
01D40D10
07B00C30
0E400C30
4F000E30
7C002F00
8A007B00
8A00C600
5C06C000
0DAC2000
01400000
ENDCHAR
STARTCHAR one
ENCODING 49
SWIDTH 272 0
DWIDTH 4 0
BBX 4 12 0 -1
BITMAP
0011
02D8
04F5
01F1
04C0
0790
0A50
0E10
3C00
8A00
BA00
2100
ENDCHAR
STARTCHAR two
ENCODING 50
SWIDTH 448 0
DWIDTH 6 0
BBX 8 12 -1 -1
BITMAP
00002410
000979C0
009A04F1
00C606D0
00000B70
00004D10
0002D300
003D4000
04D30000
2E444200
4FEDEC00
03000200
ENDCHAR
STARTCHAR three
ENCODING 51
SWIDTH 462 0
DWIDTH 6 0
BBX 7 12 0 -1
BITMAP
00034000
03D99C00
0B800F20
0D803E10
0110C700
002C8000
00B9B100
0000C500
1100E300
E605C000
AD9D2000
04510000
ENDCHAR
STARTCHAR four
ENCODING 52
SWIDTH 452 0
DWIDTH 6 0
BBX 6 12 0 -1
BITMAP
000002
0002DD
001C9A
00A886
09A0C2
7C01E0
DDDEF8
220992
000C70
001F50
003F40
000300
ENDCHAR
STARTCHAR five
ENCODING 53
SWIDTH 444 0
DWIDTH 6 0
BBX 7 12 0 -1
BITMAP
00002200
00CFFF60
02B01720
07600000
0C242000
2ECCE200
2C40B400
0000B200
4301C000
E82A4000
BFF70000
04200000
ENDCHAR
STARTCHAR six
ENCODING 54
SWIDTH 477 0
DWIDTH 7 0
BBX 6 12 0 -1
BITMAP
000032
001A9E
00A72F
04D034
0B7771
2FD798
5EB05B
7B107A
7B00C6
4D04D0
0CAC30
014100
ENDCHAR
STARTCHAR seven
ENCODING 55
SWIDTH 406 0
DWIDTH 6 0
BBX 7 12 0 -1
BITMAP
00123200
0AFEDE30
07202D10
0000B500
0007A000
002E2000
00A90000
03F20000
0AA00000
1F500000
4F200000
02000000
ENDCHAR
STARTCHAR eight
ENCODING 56
SWIDTH 444 0
DWIDTH 6 0
BBX 8 12 -1 -1
BITMAP
00002410
000594B0
001E00B1
004E05B0
002F8D20
000DF200
00A9E600
08A08B00
0E206D00
1E008900
0C78C100
00440000
ENDCHAR
STARTCHAR nine
ENCODING 57
SWIDTH 462 0
DWIDTH 6 0
BBX 6 12 0 -1
BITMAP
000140
007B88
04D10D
0C500E
1F106F
2E00CD
0F26CA
07C8A6
1003E1
942D50
8FE700
042000
ENDCHAR
STARTCHAR colon
ENCODING 58
SWIDTH 226 0
DWIDTH 3 0
BBX 4 5 -1 -1
BITMAP
06D2
0340
0000
4E50
1400
ENDCHAR
STARTCHAR semicolon
ENCODING 59
SWIDTH 212 0
DWIDTH 3 0
BBX 3 6 -1 -2
BITMAP
08C0
0530
0000
4E20
1D10
2400
ENDCHAR
STARTCHAR less
ENCODING 60
SWIDTH 271 0
DWIDTH 4 0
BBX 5 7 -1 1
BITMAP
000030
002C70
03D600
1E6000
09A000
01E400
003400
ENDCHAR
STARTCHAR equal
ENCODING 61
SWIDTH 374 0
DWIDTH 5 0
BBX 6 4 0 3
BITMAP
012320
6DCCB1
477730
A87730
ENDCHAR
STARTCHAR greater
ENCODING 62
SWIDTH 250 0
DWIDTH 4 0
BBX 5 7 -1 1
BITMAP
013000
01E300
007C00
001F40
01C900
2D7000
430000
ENDCHAR
STARTCHAR question
ENCODING 63
SWIDTH 413 0
DWIDTH 6 0
BBX 8 12 -1 -1
BITMAP
00014410
007D89D2
02F300B7
008100E4
000007C0
00028C10
00AC6000
01F30000
05D00000
02200000
1DA00000
05200000
ENDCHAR
STARTCHAR at
ENCODING 64
SWIDTH 648 0
DWIDTH 9 0
BBX 10 10 -1 -1
BITMAP
0003999A30
007B2121B2
05C06AEA59
0D35A1DA2B
3C1D10942C
594B02C059
3B4D6D70C3
0C45596970
01A934B600
0001100000
ENDCHAR
STARTCHAR A
ENCODING 65
SWIDTH 552 0
DWIDTH 8 0
BBX 9 15 -2 -4
BITMAP
0000000320
000001BAE0
00000B51E0
00006B03B0
0000D40790
0004D00A60
0009800D40
001E633F10
06BFDDEF90
04BA006C00
01F6009A00
07F200B900
0DC000BA00
261000AD00
0000002000
ENDCHAR
STARTCHAR B
ENCODING 66
SWIDTH 607 0
DWIDTH 9 0
BBX 9 14 0 -3
BITMAP
0005441000
03AF97D600
0ACD006F10
0089006F10
00D500BB00
02F105E200
06C78D3000
0ACD8C6000
0E4003F100
4F1002F400
8C0006F200
C9002E9000
F837E90000
4886200000
ENDCHAR
STARTCHAR C
ENCODING 67
SWIDTH 548 0
DWIDTH 8 0
BBX 8 14 0 -3
BITMAP
00002520
0008C6C4
008D108A
04F300BB
0CA004F7
3F400281
8E000000
CB000000
E9000000
F8000000
D8000320
9C001A00
2DA8C200
02761000
ENDCHAR
STARTCHAR D
ENCODING 68
SWIDTH 632 0
DWIDTH 9 0
BBX 9 14 0 -3
BITMAP
0003410000
03DECE8000
055102D800
00AA006E10
00E7002F40
01F4002F50
04F1003F40
07C0006F10
0A9000BB00
0E4002F400
3F100BA000
8B009C1000
DB6CA10000
2773000000
ENDCHAR
STARTCHAR E
ENCODING 69
SWIDTH 523 0
DWIDTH 7 0
BBX 9 14 -1 -3
BITMAP
0000024100
0002CA6D30
002E700970
00AC001E50
00E9009B00
00CB000000
003E630000
006CAA0000
08B1000000
3F30000100
6F10006300
4F5003A000
0AE99B1000
0058610000
ENDCHAR
STARTCHAR F
ENCODING 70
SWIDTH 585 0
DWIDTH 8 0
BBX 8 14 0 -3
BITMAP
00013430
05CC98BC
4F40002F
4FC40079
046000D2
000006A0
04ABCEC5
05527C20
0000D600
0005F100
000BA000
001F7000
004F5000
00262000
ENDCHAR
STARTCHAR G
ENCODING 71
SWIDTH 612 0
DWIDTH 9 0
BBX 8 14 0 -3
BITMAP
00000440
0003C8C6
003E406B
00D9008B
06F103E8
0DA002A1
3F500000
8F115677
AD0488F7
BB0004D0
AA000A70
7C004D00
1D54D200
02992000
ENDCHAR
STARTCHAR H
ENCODING 72
SWIDTH 649 0
DWIDTH 9 0
BBX 11 14 -1 -3
BITMAP
000010000000
0004E1005E10
0009B000AB00
000C7000E600
001F3003F100
004E0007C000
008B456CA200
03ECEA8FD400
00F31B4E0000
04F004DA0000
07C000F70000
0BA000F40000
0E7002F20000
182001500000
ENDCHAR
STARTCHAR I
ENCODING 73
SWIDTH 537 0
DWIDTH 8 0
BBX 9 14 -1 -3
BITMAP
0000002200
00001BCB00
00009B3C00
0001F56B00
0003F19900
0003E0D600
0000E2F300
000046E000
017BCED920
4E931E4000
E8004D0000
D800A50000
4E66A00000
0387000000
ENDCHAR
STARTCHAR J
ENCODING 74
SWIDTH 500 0
DWIDTH 7 0
BBX 11 14 -2 -3
BITMAP
000000233100
00000ECEED30
0000000B7000
0000001F4000
0000004F1000
0000008C0000
000000C90000
003C21F50000
02EB25F20000
09B009C00000
0E200E600000
1F005D100000
0D32D4000000
029930000000
ENDCHAR
STARTCHAR K
ENCODING 75
SWIDTH 497 0
DWIDTH 7 0
BBX 9 15 -1 -4
BITMAP
0000300110
000AA00D70
001E401F50
005E007E10
009A01E500
00D50B9000
01F2B80000
06FE930000
0AB47F3000
0C700F4000
1F403F1000
4F209B0000
8F00D60000
5500B90000
00001AA600
ENDCHAR
STARTCHAR L
ENCODING 76
SWIDTH 492 0
DWIDTH 7 0
BBX 10 14 -2 -3
BITMAP
0000000130
0000004EE5
000000D6A5
000004F4D1
000008ED40
00689EC300
00045F4000
00003F1000
00007B0000
0000C60000
0003D00000
1CFE800000
5DA9EB7A40
031017B800
ENDCHAR
STARTCHAR M
ENCODING 77
SWIDTH 733 0
DWIDTH 10 0
BBX 13 14 -2 -3
BITMAP
00000020000200
000007F100AF10
00000EE203EE00
00004CD20A9B00
000098E13D8800
0000E5F096B500
0003F3E1D1E200
0137C3D783E000
093A84DD27B000
1C0D53FB0A8000
592F11F80D6000
697D00721F5000
3DE700001F8000
05700000058100
ENDCHAR
STARTCHAR N
ENCODING 78
SWIDTH 541 0
DWIDTH 8 0
BBX 10 14 -1 -3
BITMAP
0000000032
002E4008DB
006F601F3A
009E705D67
00D982AEA0
01D580C700
05A490D300
0984A0F100
0C53B3D000
1F22C6A000
4F01EA7000
7F00DF4000
8F109E0000
2600240000
ENDCHAR
STARTCHAR O
ENCODING 79
SWIDTH 567 0
DWIDTH 8 0
BBX 8 14 0 -3
BITMAP
00016300
002DEB90
00C823E0
05E101F2
0C7000F3
3F2000F3
7D0002F2
AA0004F0
C80007C0
D7000C70
C7003E10
9900B800
4D39B000
05A60000
ENDCHAR
STARTCHAR P
ENCODING 80
SWIDTH 552 0
DWIDTH 8 0
BBX 9 14 -1 -3
BITMAP
0000145200
004BC68E40
02EB8009C0
002B4007E0
000E1009C0
004C001E60
008900AB00
00C64C9000
01FB830000
04F0000000
08C0000000
0D80000000
5F30000000
2400000000
ENDCHAR
STARTCHAR Q
ENCODING 81
SWIDTH 583 0
DWIDTH 8 0
BBX 8 14 0 -3
BITMAP
00003400
001BB9B0
00C900C5
07D10088
1E60008A
5F1000A8
8D0000D6
9B0002F2
7C0008D0
1D701E60
02528D00
2E9CF300
6D8E9C20
17720383
ENDCHAR
STARTCHAR R
ENCODING 82
SWIDTH 560 0
DWIDTH 8 0
BBX 9 15 -1 -4
BITMAP
0000145200
003BD68E50
01EA9007D0
00296005F0
000D2007D0
002E000D70
006B009C10
03FDABA100
01FCBA0000
02F32E0000
06F00E2000
0AB00D5000
2F600C7000
150009E800
0000015100
ENDCHAR
STARTCHAR S
ENCODING 83
SWIDTH 474 0
DWIDTH 7 0
BBX 8 14 -1 -3
BITMAP
00002540
0009D6B8
008C105D
00E5007C
00E70095
008E2000
001DD100
0002E800
00007D00
01003E00
6D002D00
9D007800
4F87C100
05A81000
ENDCHAR
STARTCHAR T
ENCODING 84
SWIDTH 423 0
DWIDTH 6 0
BBX 8 14 0 -3
BITMAP
00122210
6EFFFDD6
441A9000
000E5000
002F1000
006C0000
00A80000
00D50000
02F10000
05D00000
09B00000
0C800000
1F600000
17100000
ENDCHAR
STARTCHAR U
ENCODING 85
SWIDTH 574 0
DWIDTH 8 0
BBX 9 14 0 -3
BITMAP
0000000110
009C002F60
01F7006F10
05F200AB00
0AC000E700
0D7003F200
2F3006D000
5E00099000
8A000D6000
B8003F3000
C6009F1000
C702EF0000
9D7C4F2000
0672051000
ENDCHAR
STARTCHAR V
ENCODING 86
SWIDTH 503 0
DWIDTH 7 0
BBX 8 14 0 -3
BITMAP
00100011
06F1009B
0BA001F5
0E5007D0
1F100C80
4E002F30
5C007D00
5C00B800
5C01F200
4C06C000
2D0A5000
0E2D0000
0AD60000
02800000
ENDCHAR
STARTCHAR W
ENCODING 87
SWIDTH 817 0
DWIDTH 11 0
BBX 12 14 0 -3
BITMAP
000200000050
00BB005105F3
02F304F103F3
07C009E003F1
0C700CA004E0
1F200D6006C0
5D000E200A80
7A004F000D40
98009E002E00
A601ED007900
96069D00D300
791D2D16A000
3EC70ABD2000
066002920000
ENDCHAR
STARTCHAR X
ENCODING 88
SWIDTH 579 0
DWIDTH 8 0
BBX 11 14 -1 -3
BITMAP
002500000200
01BB80009E40
0773E006E300
06B3F22E4000
01CDD4C80000
0000ACC00000
00008F300000
0000BA000000
0006FA000000
002E7C000000
00B91E000000
06E10D401100
5F6008B69000
140001760000
ENDCHAR
STARTCHAR Y
ENCODING 89
SWIDTH 532 0
DWIDTH 7 0
BBX 8 14 0 -3
BITMAP
00120003
02F6009C
06E100D8
0AA001F3
0E5004E0
2F1009B0
5D001E70
7A007F30
7C15BD00
2CD94B00
00009600
3404D100
CEBE4000
38720000
ENDCHAR
STARTCHAR Z
ENCODING 90
SWIDTH 455 0
DWIDTH 6 0
BBX 9 14 -2 -3
BITMAP
0000123210
000AFFEED0
00063007D0
0000001E60
000000AC00
000006E200
00004E4000
0002E60000
000C900000
009C000000
03E2000000
0B61332000
1FEFFFE100
0532243000
ENDCHAR
STARTCHAR bracketleft
ENCODING 91
SWIDTH 202 0
DWIDTH 3 0
BBX 6 14 -1 -2
BITMAP
000591
000D70
003C00
007700
00B300
01E000
04B000
087000
0B3000
0E0000
3B0000
680000
8A1000
582000
ENDCHAR
STARTCHAR backslash
ENCODING 92
SWIDTH 273 0
DWIDTH 4 0
BBX 4 12 0 -1
BITMAP
1200
6A00
4C00
2E00
0E00
0C20
0A50
0870
05B0
03E0
01F2
0020
ENDCHAR
STARTCHAR bracketright
ENCODING 93
SWIDTH 216 0
DWIDTH 3 0
BBX 6 14 -2 -2
BITMAP
000493
0002C6
0000B3
0000E0
0002B0
000680
000A50
000D10
002C00
006800
00A400
00E000
19B000
393000
ENDCHAR
STARTCHAR asciicircum
ENCODING 94
SWIDTH 287 0
DWIDTH 4 0
BBX 6 6 -1 5
BITMAP
000010
000CE0
006AE0
01D2D2
0970C4
2B00A5
ENDCHAR
STARTCHAR underscore
ENCODING 95
SWIDTH 439 0
DWIDTH 6 0
BBX 8 2 -2 -1
BITMAP
6EFFFFE6
12100121
ENDCHAR
STARTCHAR grave
ENCODING 96
SWIDTH 567 0
DWIDTH 8 0
BBX 3 3 3 7
BITMAP
2600
2AA0
0020
ENDCHAR
STARTCHAR a
ENCODING 97
SWIDTH 435 0
DWIDTH 6 0
BBX 9 7 -1 -1
BITMAP
0018900000
00C6D30000
0890A50110
0E30D10900
2F17D08200
1ED6CA4000
0210110000
ENDCHAR
STARTCHAR b
ENCODING 98
SWIDTH 415 0
DWIDTH 6 0
BBX 8 11 0 -1
BITMAP
00A50000
04F40000
0AF10000
0EB00000
4F600000
8E1D6261
A80BC720
C20B4000
B23C0000
7BB20000
03000000
ENDCHAR
STARTCHAR c
ENCODING 99
SWIDTH 363 0
DWIDTH 5 0
BBX 8 7 -1 -1
BITMAP
004A8000
04D5D000
0C545021
1F000190
1F101A10
0AB8A100
00430000
ENDCHAR
STARTCHAR d
ENCODING 100
SWIDTH 483 0
DWIDTH 7 0
BBX 9 11 -1 -1
BITMAP
0000007600
000000E900
000004F700
000008F300
00184BD000
02C2AE6000
0A507D0030
0E00850360
2D05E33900
0DC7AB9000
0110130000
ENDCHAR
STARTCHAR e
ENCODING 101
SWIDTH 372 0
DWIDTH 5 0
BBX 7 7 0 -1
BITMAP
01990000
1C4E0000
97950110
EC400910
F3019200
9C8A2000
04300000
ENDCHAR
STARTCHAR f
ENCODING 102
SWIDTH 325 0
DWIDTH 5 0
BBX 8 17 -2 -7
BITMAP
0001A400
0000F600
0001F300
0004D000
00078000
000B4012
002FA974
00DA1000
00D90000
00EA7000
03B0D200
0780A500
0B40B400
0E12E100
3D1C7000
4FDA0000
08500000
ENDCHAR
STARTCHAR g
ENCODING 103
SWIDTH 459 0
DWIDTH 6 0
BBX 9 13 -1 -7
BITMAP
0029421000
02C3BD2000
09608D0010
0E20690730
0E21D68400
0ADADC3000
0028E10000
00ABB00000
0A78700000
2D0C400000
2C1E100000
0DAA000000
04C2000000
ENDCHAR
STARTCHAR h
ENCODING 104
SWIDTH 465 0
DWIDTH 7 0
BBX 9 11 -1 -1
BITMAP
0018100000
004F100000
006C000000
00A8000000
00D4540000
02E9BE0000
05E25C0000
0970970640
0D40D26600
1F10EC4000
0300210000
ENDCHAR
STARTCHAR i
ENCODING 105
SWIDTH 274 0
DWIDTH 4 0
BBX 5 10 0 -1
BITMAP
01D000
017000
000000
042000
3F1000
7B0030
970370
B34A00
7CA000
020000
ENDCHAR
STARTCHAR j
ENCODING 106
SWIDTH 267 0
DWIDTH 4 0
BBX 8 17 -3 -7
BITMAP
00000100
00000D30
00000600
00000000
00004100
0001F300
0005D003
00099057
000C5670
000FA600
006E2000
06EA0000
3CA60000
B4D20000
D3C00000
8C600000
02000000
ENDCHAR
STARTCHAR k
ENCODING 107
SWIDTH 440 0
DWIDTH 6 0
BBX 8 11 -1 -1
BITMAP
003A1000
005E0000
007B0000
00B60000
00E26400
02CAAB00
06D29401
0A6EB009
0D02C083
3B04DB40
12006200
ENDCHAR
STARTCHAR l
ENCODING 108
SWIDTH 218 0
DWIDTH 3 0
BBX 5 11 -1 -1
BITMAP
002810
005F10
007C00
00B800
00E400
03F000
07B000
0A7000
0E4000
2E0000
030000
ENDCHAR
STARTCHAR m
ENCODING 109
SWIDTH 717 0
DWIDTH 10 0
BBX 12 7 0 -1
BITMAP
010240240000
1F7CF5DF2000
4F71F91F2021
8D04E14E0190
C708808A0920
F30D409DB300
300200141000
ENDCHAR
STARTCHAR n
ENCODING 110
SWIDTH 461 0
DWIDTH 6 0
BBX 9 7 -1 -1
BITMAP
0031530000
02FACC0000
06E36B0020
0980980730
0D40D45700
2E00EB8000
1100330000
ENDCHAR
STARTCHAR o
ENCODING 111
SWIDTH 393 0
DWIDTH 6 0
BBX 7 7 0 -1
BITMAP
04720000
4D5C0040
BB0B4840
E9BE9100
D06C0000
B9C30000
13100000
ENDCHAR
STARTCHAR p
ENCODING 112
SWIDTH 451 0
DWIDTH 6 0
BBX 10 12 -2 -6
BITMAP
0015043000
002FAAD000
004E31E001
008806A081
00B94D3840
01EFFEB500
04C4431000
0880000000
0C50000000
1F20000000
4E00000000
4A00000000
ENDCHAR
STARTCHAR q
ENCODING 113
SWIDTH 462 0
DWIDTH 6 0
BBX 8 13 -1 -7
BITMAP
00163320
01C5BD40
09806E00
0E406B00
1F20C708
0C99D382
0163E840
0004F500
00098000
001E5000
004F4000
002E4000
00021000
ENDCHAR
STARTCHAR r
ENCODING 114
SWIDTH 406 0
DWIDTH 6 0
BBX 8 8 -1 -1
BITMAP
00330000
01EA0000
02FDA000
0682F202
0C16B046
650D2390
901F8A10
10045000
ENDCHAR
STARTCHAR s
ENCODING 115
SWIDTH 351 0
DWIDTH 5 0
BBX 4 8 0 -1
BITMAP
0010
06F2
0CC0
38E2
6098
354C
7D95
0630
ENDCHAR
STARTCHAR t
ENCODING 116
SWIDTH 301 0
DWIDTH 4 0
BBX 7 11 -1 -1
BITMAP
00083000
002F5000
88BFDB70
24BD0120
00D80000
01F30000
04C00130
07600910
08309300
05CB4000
00320000
ENDCHAR
STARTCHAR u
ENCODING 117
SWIDTH 468 0
DWIDTH 7 0
BBX 8 7 0 -1
BITMAP
03004000
4D04E000
A809C003
D40C7054
F21D3470
ACB9C800
03101000
ENDCHAR
STARTCHAR v
ENCODING 118
SWIDTH 427 0
DWIDTH 6 0
BBX 8 7 0 -1
BITMAP
13006100
A806F100
C50AA262
D41C9710
B5950000
6E700000
03000000
ENDCHAR
STARTCHAR w
ENCODING 119
SWIDTH 646 0
DWIDTH 9 0
BBX 11 7 0 -1
BITMAP
050170140000
6C08C09B0000
A80B60B81720
C50B10DA8200
D22D05B00000
AA95AC200000
140021000000
ENDCHAR
STARTCHAR x
ENCODING 120
SWIDTH 399 0
DWIDTH 6 0
BBX 7 7 -1 -1
BITMAP
04602710
03E1D800
00CD9000
00BB0010
08CD0280
6B0CCA10
31013000
ENDCHAR
STARTCHAR y
ENCODING 121
SWIDTH 406 0
DWIDTH 6 0
BBX 6 12 -1 -6
BITMAP
023015
08C04F
0B706B
1F20D6
3E08F2
1EBBE0
0245A0
000970
000D40
002F10
006D00
006800
ENDCHAR
STARTCHAR z
ENCODING 122
SWIDTH 448 0
DWIDTH 6 0
BBX 9 12 -1 -6
BITMAP
0016882000
007A6D3000
00004B0000
0001D20410
001CD74700
002A3E7000
0018BA0000
01C4960000
0B41E10000
4B08A00000
693E200000
3EE4000000
ENDCHAR
STARTCHAR braceleft
ENCODING 123
SWIDTH 243 0
DWIDTH 3 0
BBX 6 14 -1 -2
BITMAP
000065
000BE3
002D10
003B00
003C00
006900
06B100
03B000
01C000
078000
0D1000
3D0000
1EA000
035000
ENDCHAR
STARTCHAR bar
ENCODING 124
SWIDTH 253 0
DWIDTH 4 0
BBX 4 12 0 -1
BITMAP
0012
00B5
00E1
03C0
0780
0A40
0E10
3D00
6A00
A700
D500
3000
ENDCHAR
STARTCHAR braceright
ENCODING 125
SWIDTH 243 0
DWIDTH 3 0
BBX 6 14 -2 -2
BITMAP
000350
0007F4
0000A7
0000B4
0004B0
000940
000860
0009A0
005A00
007600
007700
00A600
1CE100
382000
ENDCHAR
STARTCHAR asciitilde
ENCODING 126
SWIDTH 329 0
DWIDTH 5 0
BBX 6 2 -1 4
BITMAP
18A648
4858A5
ENDCHAR
STARTCHAR uni00A0
ENCODING 160
SWIDTH 280 0
DWIDTH 4 0
BBX 1 1 0 0
BITMAP
00
ENDCHAR
STARTCHAR exclamdown
ENCODING 161
SWIDTH 249 0
DWIDTH 3 0
BBX 5 12 -1 -1
BITMAP
000220
000E80
000100
002D00
007A00
00B700
01F300
04F000
08C000
0C8000
2F5000
140000
ENDCHAR
STARTCHAR cent
ENCODING 162
SWIDTH 322 0
DWIDTH 5 0
BBX 5 12 0 -1
BITMAP
000100
000B00
018C40
0B5590
5A0E70
C30410
E00000
D00000
C23600
3E7000
1B0000
010000
ENDCHAR
STARTCHAR sterling
ENCODING 163
SWIDTH 318 0
DWIDTH 4 0
BBX 6 10 -1 0
BITMAP
000373
003B3C
00946C
00D072
03C000
1CDB10
0A4000
1C0000
8CCD60
220000
ENDCHAR
STARTCHAR currency
ENCODING 164
SWIDTH 347 0
DWIDTH 5 0
BBX 5 6 0 2
BITMAP
130030
1CAB90
0A1B00
1C4A00
B87C10
200200
ENDCHAR
STARTCHAR yen
ENCODING 165
SWIDTH 326 0
DWIDTH 5 0
BBX 6 10 0 0
BITMAP
020001
1D00A4
0D03A0
0A4C20
05E400
28C400
4BA300
7E8200
1D0000
010000
ENDCHAR
STARTCHAR brokenbar
ENCODING 166
SWIDTH 253 0
DWIDTH 4 0
BBX 4 12 0 -1
BITMAP
0012
00B5
00E1
03C0
0780
0210
0700
3C00
6A00
A700
D500
3000
ENDCHAR
STARTCHAR section
ENCODING 167
SWIDTH 297 0
DWIDTH 4 0
BBX 6 12 -1 -1
BITMAP
000241
00682B
00E15B
00A500
005E40
0882C0
0D23B0
05C920
004A00
4B0C30
494C00
024000
ENDCHAR
STARTCHAR dieresis
ENCODING 168
SWIDTH 567 0
DWIDTH 8 0
BBX 4 2 3 8
BITMAP
1111
C4A6
ENDCHAR
STARTCHAR copyright
ENCODING 169
SWIDTH 456 0
DWIDTH 6 0
BBX 7 8 0 3
BITMAP
00022000
01A76A10
0B29A380
778591B0
A2C001C0
93B25680
49363B00
05988100
ENDCHAR
STARTCHAR ordfeminine
ENCODING 170
SWIDTH 373 0
DWIDTH 5 0
BBX 7 8 -1 -1
BITMAP
002A4000
02B5B000
0B42B000
1E068040
2E8B8830
07417200
6BCCB000
43221000
ENDCHAR
STARTCHAR guillemotleft
ENCODING 171
SWIDTH 346 0
DWIDTH 5 0
BBX 6 7 -1 -1
BITMAP
001313
01B3B2
0B5B50
6B5C00
1D2D10
048570
002020
ENDCHAR
STARTCHAR logicalnot
ENCODING 172
SWIDTH 512 0
DWIDTH 7 0
BBX 7 4 0 2
BITMAP
58999860
876557C0
00000680
00000720
ENDCHAR
STARTCHAR sfthyphen
ENCODING 173
SWIDTH 353 0
DWIDTH 5 0
BBX 6 2 -1 3
BITMAP
1BDDD8
132110
ENDCHAR
STARTCHAR registered
ENCODING 174
SWIDTH 456 0
DWIDTH 6 0
BBX 7 8 0 3
BITMAP
00022000
01A76A10
0B6AA480
7737A1B0
A28C51C0
93A56680
49409B00
05988100
ENDCHAR
STARTCHAR macron
ENCODING 175
SWIDTH 567 0
DWIDTH 8 0
BBX 4 2 3 8
BITMAP
1220
ACC5
ENDCHAR
STARTCHAR degree
ENCODING 176
SWIDTH 144 0
DWIDTH 2 0
BBX 3 3 0 7
BITMAP
0430
2A90
0410
ENDCHAR
STARTCHAR twosuperior
ENCODING 178
SWIDTH 268 0
DWIDTH 4 0
BBX 5 8 0 3
BITMAP
003500
087C30
0A1D20
005900
03B100
4B1000
BDE600
100100
ENDCHAR
STARTCHAR threesuperior
ENCODING 179
SWIDTH 262 0
DWIDTH 4 0
BBX 5 8 0 3
BITMAP
004300
0B7C20
0B1C10
01A600
038900
424900
8BC200
021000
ENDCHAR
STARTCHAR acute
ENCODING 180
SWIDTH 567 0
DWIDTH 8 0
BBX 3 3 3 7
BITMAP
0060
2C90
1200
ENDCHAR
STARTCHAR mu
ENCODING 181
SWIDTH 453 0
DWIDTH 6 0
BBX 9 8 -2 -3
BITMAP
00870B4000
00E22F2000
04D05C0120
08B0890800
0BEC7DB400
1F10010000
4C00000000
6400000000
ENDCHAR
STARTCHAR paragraph
ENCODING 182
SWIDTH 411 0
DWIDTH 6 0
BBX 7 12 0 -1
BITMAP
00003110
028BEDA0
2EFF9D10
7FFF4B00
7FFE5800
1BFB8400
0077B100
0094B000
00D29000
02B66000
078A2000
02110000
ENDCHAR
STARTCHAR periodcentered
ENCODING 183
SWIDTH 168 0
DWIDTH 2 0
BBX 2 2 0 4
BITMAP
24
BA
ENDCHAR
STARTCHAR cedilla
ENCODING 184
SWIDTH 567 0
DWIDTH 8 0
BBX 3 4 3 -2
BITMAP
0300
1D20
15E0
2850
ENDCHAR
STARTCHAR onesuperior
ENCODING 185
SWIDTH 150 0
DWIDTH 2 0
BBX 3 8 0 3
BITMAP
0120
0A80
0950
0C10
0C00
4900
8700
1100
ENDCHAR
STARTCHAR ordmasculine
ENCODING 186
SWIDTH 319 0
DWIDTH 4 0
BBX 7 8 -1 -1
BITMAP
00660000
06A67120
0D93C800
1C7D9000
0C3C2000
04820000
7CCC2000
43220000
ENDCHAR
STARTCHAR guillemotright
ENCODING 187
SWIDTH 346 0
DWIDTH 5 0
BBX 6 7 -1 -1
BITMAP
040400
0A3A30
04B4B0
01E3E2
0B5B50
868600
202000
ENDCHAR
STARTCHAR onequarter
ENCODING 188
SWIDTH 579 0
DWIDTH 8 0
BBX 9 12 -1 -1
BITMAP
0002000020
0099000C40
0085008700
00B204B000
00C01C2120
0390952E60
0785A1CB30
002D2B5C00
00A62CBE30
06B0005900
2E30008800
1200001100
ENDCHAR
STARTCHAR onehalf
ENCODING 189
SWIDTH 603 0
DWIDTH 8 0
BBX 10 12 -1 -1
BITMAP
0003000030
008A000B50
0076007900
00A303C000
00C00C2330
02A08696E1
0694B0C1E1
001C200780
0097004B00
04C005B100
1D400DDE40
1200020110
ENDCHAR
STARTCHAR threequarters
ENCODING 190
SWIDTH 669 0
DWIDTH 9 0
BBX 9 12 0 -1
BITMAP
0043000030
0B7C200980
0B1C104B00
01A601C200
03890A5030
4249590CA0
8BC4C1AA70
021B488940
006A0BAE70
02D1001D00
0B60004C00
0200001200
ENDCHAR
STARTCHAR questiondown
ENCODING 191
SWIDTH 413 0
DWIDTH 6 0
BBX 7 12 -1 -1
BITMAP
00000240
00000DC0
00000210
00002E10
00006D00
0017D800
03D72000
1E400000
7B003600
A8006E00
5D78D500
02641000
ENDCHAR
STARTCHAR Agrave
ENCODING 192
SWIDTH 552 0
DWIDTH 8 0
BBX 10 18 -2 -4
BITMAP
0000001700
00000019C1
0000000020
0000000320
000001BAE0
00000B51E0
00006B03B0
0000D40790
0004D00A60
0009800D40
001E633F10
06BFDDEF90
04BA006C00
01F6009A00
07F200B900
0DC000BA00
261000AD00
0000002000
ENDCHAR
STARTCHAR Aacute
ENCODING 193
SWIDTH 552 0
DWIDTH 8 0
BBX 9 17 -2 -4
BITMAP
0000000050
0000001BB0
0000001620
000001BAE0
00000B51E0
00006B03B0
0000D40790
0004D00A60
0009800D40
001E633F10
06BFDDEF90
04BA006C00
01F6009A00
07F200B900
0DC000BA00
261000AD00
0000002000
ENDCHAR
STARTCHAR Acircumflex
ENCODING 194
SWIDTH 552 0
DWIDTH 8 0
BBX 10 17 -2 -4
BITMAP
0000000490
0000006998
0000000320
000001BAE0
00000B51E0
00006B03B0
0000D40790
0004D00A60
0009800D40
001E633F10
06BFDDEF90
04BA006C00
01F6009A00
07F200B900
0DC000BA00
261000AD00
0000002000
ENDCHAR
STARTCHAR Atilde
ENCODING 195
SWIDTH 552 0
DWIDTH 8 0
BBX 11 17 -2 -4
BITMAP
000000130110
000000B9BC20
000000032000
000001BAE000
00000B51E000
00006B03B000
0000D4079000
0004D00A6000
0009800D4000
001E633F1000
06BFDDEF9000
04BA006C0000
01F6009A0000
07F200B90000
0DC000BA0000
261000AD0000
000000200000
ENDCHAR
STARTCHAR Adieresis
ENCODING 196
SWIDTH 552 0
DWIDTH 8 0
BBX 11 17 -2 -4
BITMAP
000000020200
0000005B3C10
000000032000
000001BAE000
00000B51E000
00006B03B000
0000D4079000
0004D00A6000
0009800D4000
001E633F1000
06BFDDEF9000
04BA006C0000
01F6009A0000
07F200B90000
0DC000BA0000
261000AD0000
000000200000
ENDCHAR
STARTCHAR Aring
ENCODING 197
SWIDTH 552 0
DWIDTH 8 0
BBX 9 16 -2 -4
BITMAP
0000000780
0000000B90
000001BAD0
00000B51E0
00006B03B0
0000D40790
0004D00A60
0009800D40
001E633F10
06BFDDEF90
04BA006C00
01F6009A00
07F200B900
0DC000BA00
261000AD00
0000002000
ENDCHAR
STARTCHAR AE
ENCODING 198
SWIDTH 869 0
DWIDTH 12 0
BBX 15 15 -2 -4
BITMAP
0000000320034100
000001BAE4C96D10
00000B51FF400C50
00006B03FA002F20
0000D407F700B900
0004D00AF9000000
0009800D9E520000
001E633F9BA80000
06BFDDEF90000000
04BA006F10001100
01F6009E00007100
07F200BF30048000
0DC000BFE8AA1000
261000AE68500000
0000002000000000
ENDCHAR
STARTCHAR Ccedilla
ENCODING 199
SWIDTH 548 0
DWIDTH 8 0
BBX 8 17 0 -6
BITMAP
00001520
0008C6C4
008D108A
04F300BB
0CA004F7
3F400281
8E000000
CB000000
E9000000
F8000000
D8000320
9C001A00
2EA8C200
01D61000
01C90000
003C0000
02510000
ENDCHAR
STARTCHAR Egrave
ENCODING 200
SWIDTH 523 0
DWIDTH 7 0
BBX 9 16 -1 -3
BITMAP
0000044000
000004C600
0000024400
0002CA6D30
002E700970
00AC001E50
00E9009B00
00CB000000
003E630000
006CAA0000
08B1000000
3F30000100
6F10006300
4F5003A000
0AE99B1000
0058610000
ENDCHAR
STARTCHAR Eacute
ENCODING 201
SWIDTH 523 0
DWIDTH 7 0
BBX 9 16 -1 -3
BITMAP
0000000600
000002C900
0000046100
0002CA6D30
002E700970
00AC001E50
00E9009B00
00CB000000
003E630000
006CAA0000
08B1000000
3F30000100
6F10006300
4F5003A000
0AE99B1000
0058610000
ENDCHAR
STARTCHAR Ecircumflex
ENCODING 202
SWIDTH 523 0
DWIDTH 7 0
BBX 9 16 -1 -3
BITMAP
0000005800
0000088A50
0000024100
0002CA6D30
002E700970
00AC001E50
00E9009B00
00CB000000
003E630000
006CAA0000
08B1000000
3F30000100
6F10006300
4F5003A000
0AE99B1000
0058610000
ENDCHAR
STARTCHAR Edieresis
ENCODING 203
SWIDTH 523 0
DWIDTH 7 0
BBX 9 16 -1 -3
BITMAP
0000011010
00000B6980
0000024100
0002CA6D30
002E700970
00AC001E50
00E9009B00
00CB000000
003E630000
006CAA0000
08B1000000
3F30000100
6F10006300
4F5003A000
0AE99B1000
0058610000
ENDCHAR
STARTCHAR Igrave
ENCODING 204
SWIDTH 537 0
DWIDTH 8 0
BBX 9 16 -1 -3
BITMAP
0000026000
000002AA00
0000002400
00001BCB00
00009B3C00
0001F56B00
0003F19900
0003E0D600
0000E2F300
000046E000
017BCED920
4E931E4000
E8004D0000
D800A50000
4E66A00000
0387000000
ENDCHAR
STARTCHAR Iacute
ENCODING 205
SWIDTH 537 0
DWIDTH 8 0
BBX 9 16 -1 -3
BITMAP
0000000420
0000008D30
0000006200
00001BCB00
00009B3C00
0001F56B00
0003F19900
0003E0D600
0000E2F300
000046E000
017BCED920
4E931E4000
E8004D0000
D800A50000
4E66A00000
0387000000
ENDCHAR
STARTCHAR Icircumflex
ENCODING 206
SWIDTH 537 0
DWIDTH 8 0
BBX 10 16 -1 -3
BITMAP
0000001840
000002A6C1
0000002200
00001BCB00
00009B3C00
0001F56B00
0003F19900
0003E0D600
0000E2F300
000046E000
017BCED920
4E931E4000
E8004D0000
D800A50000
4E66A00000
0387000000
ENDCHAR
STARTCHAR Idieresis
ENCODING 207
SWIDTH 537 0
DWIDTH 8 0
BBX 10 16 -1 -3
BITMAP
0000002020
000005B3C1
0000002200
00001BCB00
00009B3C00
0001F56B00
0003F19900
0003E0D600
0000E2F300
000046E000
017BCED920
4E931E4000
E8004D0000
D800A50000
4E66A00000
0387000000
ENDCHAR
STARTCHAR Eth
ENCODING 208
SWIDTH 632 0
DWIDTH 9 0
BBX 10 14 -1 -3
BITMAP
0000341000
003DECE800
0055102D80
000AA006E1
000E7002F4
001F4002F5
058F8303F4
3ACD7306F1
00A9000BB0
00E4002F40
03F100BA00
08B009C100
0DB6CA1000
0277300000
ENDCHAR
STARTCHAR Ntilde
ENCODING 209
SWIDTH 541 0
DWIDTH 8 0
BBX 10 16 -1 -3
BITMAP
0000131010
0000A9BC40
0000000032
002E4008DB
006F601F3A
009E705D67
00D982AEA0
01D580C700
05A490D300
0984A0F100
0C53B3D000
1F22C6A000
4F01EA7000
7F00DF4000
8F109E0000
2600240000
ENDCHAR
STARTCHAR Ograve
ENCODING 210
SWIDTH 567 0
DWIDTH 8 0
BBX 8 16 0 -3
BITMAP
00004400
00004C60
00016320
002DEB90
00C823E0
05E101F2
0C7000F3
3F2000F3
7D0002F2
AA0004F0
C80007C0
D7000C70
C7003E10
9900B800
4D39B000
05A60000
ENDCHAR
STARTCHAR Oacute
ENCODING 211
SWIDTH 567 0
DWIDTH 8 0
BBX 8 16 0 -3
BITMAP
00000140
00004D60
00018400
002DEB90
00C823E0
05E101F2
0C7000F3
3F2000F3
7D0002F2
AA0004F0
C80007C0
D7000C70
C7003E10
9900B800
4D39B000
05A60000
ENDCHAR
STARTCHAR Ocircumflex
ENCODING 212
SWIDTH 567 0
DWIDTH 8 0
BBX 8 16 0 -3
BITMAP
00001840
0002A6C1
00016300
002DEB90
00C823E0
05E101F2
0C7000F3
3F2000F3
7D0002F2
AA0004F0
C80007C0
D7000C70
C7003E10
9900B800
4D39B000
05A60000
ENDCHAR
STARTCHAR Otilde
ENCODING 213
SWIDTH 567 0
DWIDTH 8 0
BBX 8 16 0 -3
BITMAP
00013101
000A9BC4
00016300
002DEB90
00C823E0
05E101F2
0C7000F3
3F2000F3
7D0002F2
AA0004F0
C80007C0
D7000C70
C7003E10
9900B800
4D39B000
05A60000
ENDCHAR
STARTCHAR Odieresis
ENCODING 214
SWIDTH 567 0
DWIDTH 8 0
BBX 8 16 0 -3
BITMAP
00002010
0003C2D3
00016300
002DEB90
00C823E0
05E101F2
0C7000F3
3F2000F3
7D0002F2
AA0004F0
C80007C0
D7000C70
C7003E10
9900B800
4D39B000
05A60000
ENDCHAR
STARTCHAR multiply
ENCODING 215
SWIDTH 281 0
DWIDTH 4 0
BBX 6 6 -1 2
BITMAP
012010
04C1D3
00DC40
00C700
099A00
260900
ENDCHAR
STARTCHAR Oslash
ENCODING 216
SWIDTH 597 0
DWIDTH 8 0
BBX 10 14 -1 -3
BITMAP
0000054182
0001BEBFB0
0009B23F40
003F20AF50
00AA04ED60
01F40C6D60
04F05C0E50
07C0D42F30
09B7B05E00
0ABE309A00
0AFA01E300
07F309A000
0AF47C1000
3D69810000
ENDCHAR
STARTCHAR Ugrave
ENCODING 217
SWIDTH 574 0
DWIDTH 8 0
BBX 9 16 0 -3
BITMAP
0000440000
00004C6000
0000002110
009C002F60
01F7006F10
05F200AB00
0AC000E700
0D7003F200
2F3006D000
5E00099000
8A000D6000
B8003F3000
C6009F1000
C702EF0000
9D7C4F2000
0672051000
ENDCHAR
STARTCHAR Uacute
ENCODING 218
SWIDTH 574 0
DWIDTH 8 0
BBX 9 16 0 -3
BITMAP
0000004200
000008D300
0000030110
009C002F60
01F7006F10
05F200AB00
0AC000E700
0D7003F200
2F3006D000
5E00099000
8A000D6000
B8003F3000
C6009F1000
C702EF0000
9D7C4F2000
0672051000
ENDCHAR
STARTCHAR Ucircumflex
ENCODING 219
SWIDTH 574 0
DWIDTH 8 0
BBX 9 16 0 -3
BITMAP
0000058000
000088A500
0000000110
009C002F60
01F7006F10
05F200AB00
0AC000E700
0D7003F200
2F3006D000
5E00099000
8A000D6000
B8003F3000
C6009F1000
C702EF0000
9D7C4F2000
0672051000
ENDCHAR
STARTCHAR Udieresis
ENCODING 220
SWIDTH 574 0
DWIDTH 8 0
BBX 9 16 0 -3
BITMAP
0000211100
0000C4A600
0000000110
009C002F60
01F7006F10
05F200AB00
0AC000E700
0D7003F200
2F3006D000
5E00099000
8A000D6000
B8003F3000
C6009F1000
C702EF0000
9D7C4F2000
0672051000
ENDCHAR
STARTCHAR Yacute
ENCODING 221
SWIDTH 532 0
DWIDTH 7 0
BBX 8 16 0 -3
BITMAP
00000150
00003D70
00122103
02F6009C
06E100D8
0AA001F3
0E5004E0
2F1009B0
5D001E70
7A007F30
7C15BD00
2CD94B00
00009600
3404D100
CEBE4000
38720000
ENDCHAR
STARTCHAR Thorn
ENCODING 222
SWIDTH 569 0
DWIDTH 8 0
BBX 9 14 -1 -3
BITMAP
0000100000
000B900000
001F400000
004FBBB400
04EC105F30
06E8000D70
00E4000D70
03F0002F30
07C000BA00
0A901AB100
0EAAC60000
2F51000000
6F10000000
4600000000
ENDCHAR
STARTCHAR germandbls
ENCODING 223
SWIDTH 495 0
DWIDTH 7 0
BBX 9 17 -2 -7
BITMAP
0000012000
00007DC600
0003E17900
000980D400
000E35A000
003D068000
007801E200
25C3007C00
04F3170E20
05AB4F8900
0964B45000
0D20E00000
1E01E00000
5A07900000
873E200000
ADE5000000
3830000000
ENDCHAR
STARTCHAR agrave
ENCODING 224
SWIDTH 435 0
DWIDTH 6 0
BBX 9 10 -1 -1
BITMAP
0017100000
0018C10000
0000200000
0018900000
00C6D30000
0890A50110
0E30D10900
2F17D08200
1ED6CA4000
0210110000
ENDCHAR
STARTCHAR aacute
ENCODING 225
SWIDTH 435 0
DWIDTH 6 0
BBX 9 10 -1 -1
BITMAP
0000330000
0007D30000
0003000000
0018900000
00C6D30000
0890A50110
0E30D10900
2F17D08200
1ED6CA4000
0210110000
ENDCHAR
STARTCHAR acircumflex
ENCODING 226
SWIDTH 435 0
DWIDTH 6 0
BBX 9 10 -1 -1
BITMAP
0002920000
004A7A0000
0000000000
0018900000
00C6D30000
0890A50110
0E30D10900
2F17D08200
1ED6CA4000
0210110000
ENDCHAR
STARTCHAR atilde
ENCODING 227
SWIDTH 435 0
DWIDTH 6 0
BBX 9 10 -1 -1
BITMAP
0013101000
00B9BC3000
0000000000
0018900000
00C6D30000
0890A50110
0E30D10900
2F17D08200
1ED6CA4000
0210110000
ENDCHAR
STARTCHAR adieresis
ENCODING 228
SWIDTH 435 0
DWIDTH 6 0
BBX 9 9 -1 -1
BITMAP
0002010000
002C2D3000
0018900000
00C6D30000
0890A50110
0E30D10900
2F17D08200
1ED6CA4000
0210110000
ENDCHAR
STARTCHAR aring
ENCODING 229
SWIDTH 435 0
DWIDTH 6 0
BBX 9 10 -1 -1
BITMAP
0002400000
000AA00000
0002300000
0018900000
00C6D30000
0890A50110
0E30D10900
2F17D08200
1ED6CA4000
0210110000
ENDCHAR
STARTCHAR ae
ENCODING 230
SWIDTH 594 0
DWIDTH 8 0
BBX 11 7 -1 -1
BITMAP
0018918A0000
00C6EC4E1000
0890C8870010
0E30EC500820
2F17F5019300
1EE78D8A2000
021004300000
ENDCHAR
STARTCHAR ccedilla
ENCODING 231
SWIDTH 363 0
DWIDTH 5 0
BBX 8 10 -1 -4
BITMAP
004A8000
04D5D000
0C545021
1F000190
1F101A10
0AB8A100
00D40000
019D1000
01790000
01100000
ENDCHAR
STARTCHAR egrave
ENCODING 232
SWIDTH 372 0
DWIDTH 5 0
BBX 7 10 0 -1
BITMAP
02600000
019B0000
00020000
01990000
1C4E0000
97950110
EC400910
F3019200
9C8A2000
04300000
ENDCHAR
STARTCHAR eacute
ENCODING 233
SWIDTH 372 0
DWIDTH 5 0
BBX 7 10 0 -1
BITMAP
00042000
009C2000
00300000
01990000
1C4E0000
97950110
EC400910
F3019200
9C8A2000
04300000
ENDCHAR
STARTCHAR ecircumflex
ENCODING 234
SWIDTH 372 0
DWIDTH 5 0
BBX 7 10 0 -1
BITMAP
00391000
05A88000
00000000
01990000
1C4E0000
97950110
EC400910
F3019200
9C8A2000
04300000
ENDCHAR
STARTCHAR edieresis
ENCODING 235
SWIDTH 372 0
DWIDTH 5 0
BBX 7 9 0 -1
BITMAP
01202000
0886B000
01990000
1C4E0000
97950110
EC400910
F3019200
9C8A2000
04300000
ENDCHAR
STARTCHAR igrave
ENCODING 236
SWIDTH 274 0
DWIDTH 4 0
BBX 5 10 0 -1
BITMAP
540000
4C6000
002000
042000
3F1000
7B0030
970370
B34A00
7CA000
020000
ENDCHAR
STARTCHAR iacute
ENCODING 237
SWIDTH 274 0
DWIDTH 4 0
BBX 5 10 0 -1
BITMAP
000600
01BA00
012000
042000
3F1000
7B0030
970370
B34A00
7CA000
020000
ENDCHAR
STARTCHAR icircumflex
ENCODING 238
SWIDTH 274 0
DWIDTH 4 0
BBX 5 9 0 -1
BITMAP
039100
5A8900
042000
3F1000
7B0030
970370
B34A00
7CA000
020000
ENDCHAR
STARTCHAR idieresis
ENCODING 239
SWIDTH 274 0
DWIDTH 4 0
BBX 5 9 0 -1
BITMAP
120200
886B00
042000
3F1000
7B0030
970370
B34A00
7CA000
020000
ENDCHAR
STARTCHAR eth
ENCODING 240
SWIDTH 393 0
DWIDTH 6 0
BBX 7 11 0 -1
BITMAP
00010000
000A0000
005DCA00
049A6000
04786000
4D5E6040
BB0B6940
E9BE9100
D06C0000
B9C30000
13100000
ENDCHAR
STARTCHAR ntilde
ENCODING 241
SWIDTH 461 0
DWIDTH 6 0
BBX 9 9 -1 -1
BITMAP
0003101000
0099BC4000
0031530000
02FACC0000
06E36B0020
0980980730
0D40D45700
2E00EB8000
1100330000
ENDCHAR
STARTCHAR ograve
ENCODING 242
SWIDTH 393 0
DWIDTH 6 0
BBX 7 10 0 -1
BITMAP
02600000
019B0000
00020000
04720000
4D5C0040
BB0B4840
E9BE9100
D06C0000
B9C30000
13100000
ENDCHAR
STARTCHAR oacute
ENCODING 243
SWIDTH 393 0
DWIDTH 6 0
BBX 7 10 0 -1
BITMAP
00042000
009C2000
00300000
04720000
4D5C0040
BB0B4840
E9BE9100
D06C0000
B9C30000
13100000
ENDCHAR
STARTCHAR ocircumflex
ENCODING 244
SWIDTH 393 0
DWIDTH 6 0
BBX 7 9 0 -1
BITMAP
00760000
1A6D3000
04720000
4D5C0040
BB0B4840
E9BE9100
D06C0000
B9C30000
13100000
ENDCHAR
STARTCHAR otilde
ENCODING 245
SWIDTH 393 0
DWIDTH 6 0
BBX 7 9 0 -1
BITMAP
02201000
3BAC9000
04720000
4D5C0040
BB0B4840
E9BE9100
D06C0000
B9C30000
13100000
ENDCHAR
STARTCHAR odieresis
ENCODING 246
SWIDTH 393 0
DWIDTH 6 0
BBX 7 9 0 -1
BITMAP
01101000
0A689000
04720000
4D5C0040
BB0B4840
E9BE9100
D06C0000
B9C30000
13100000
ENDCHAR
STARTCHAR divide
ENCODING 247
SWIDTH 350 0
DWIDTH 5 0
BBX 5 6 0 2
BITMAP
001100
00A500
689860
976640
068000
021000
ENDCHAR
STARTCHAR oslash
ENCODING 248
SWIDTH 406 0
DWIDTH 6 0
BBX 8 7 -1 -1
BITMAP
00387B00
02E5C403
09E09685
0D9CDB20
0D14E000
0CAC5000
7A310000
ENDCHAR
STARTCHAR ugrave
ENCODING 249
SWIDTH 468 0
DWIDTH 7 0
BBX 8 9 0 -1
BITMAP
01710000
018C1000
03024000
4D04E000
A809C003
D40C7054
F21D3470
ACB9C800
03101000
ENDCHAR
STARTCHAR uacute
ENCODING 250
SWIDTH 468 0
DWIDTH 7 0
BBX 8 9 0 -1
BITMAP
00024000
005D5000
03314000
4D04E000
A809C003
D40C7054
F21D3470
ACB9C800
03101000
ENDCHAR
STARTCHAR ucircumflex
ENCODING 251
SWIDTH 468 0
DWIDTH 7 0
BBX 8 9 0 -1
BITMAP
00183000
03B6C100
03004000
4D04E000
A809C003
D40C7054
F21D3470
ACB9C800
03101000
ENDCHAR
STARTCHAR udieresis
ENCODING 252
SWIDTH 468 0
DWIDTH 7 0
BBX 8 9 0 -1
BITMAP
00201000
03C2D300
03004000
4D04E000
A809C003
D40C7054
F21D3470
ACB9C800
03101000
ENDCHAR
STARTCHAR yacute
ENCODING 253
SWIDTH 406 0
DWIDTH 6 0
BBX 6 15 -1 -6
BITMAP
000015
0003C8
000220
023015
08C04F
0B706B
1F20D6
3E08F2
1EBBE0
0245A0
000970
000D40
002F10
006D00
006800
ENDCHAR
STARTCHAR thorn
ENCODING 254
SWIDTH 451 0
DWIDTH 6 0
BBX 10 16 -2 -6
BITMAP
0001820000
0003F30000
0005D00000
0009900000
000C543000
001FAAD000
004E31E001
008806A081
00B94D3840
01EFFEB500
04C4431000
0880000000
0C50000000
1F20000000
4E00000000
4A00000000
ENDCHAR
STARTCHAR ydieresis
ENCODING 255
SWIDTH 406 0
DWIDTH 6 0
BBX 6 14 -1 -6
BITMAP
001202
00886B
023015
08C04F
0B706B
1F20D6
3E08F2
1EBBE0
0245A0
000970
000D40
002F10
006D00
006800
ENDCHAR
STARTCHAR dotlessi
ENCODING 305
SWIDTH 274 0
DWIDTH 4 0
BBX 5 7 0 -1
BITMAP
042000
3F1000
7B0030
970370
B34A00
7CA000
020000
ENDCHAR
STARTCHAR Lslash
ENCODING 321
SWIDTH 492 0
DWIDTH 7 0
BBX 10 14 -2 -3
BITMAP
0000000130
0000004EE5
000000D6A5
000004F4D1
000008ED40
00689EC300
00045F4000
00004F9400
002EEC6100
0012C60000
0003D00000
1CFE800000
5DA9EB7A40
031017B800
ENDCHAR
STARTCHAR lslash
ENCODING 322
SWIDTH 218 0
DWIDTH 3 0
BBX 5 11 -1 -1
BITMAP
002810
005F10
007C00
00B800
15EDA0
BBF300
06B000
0A7000
0E4000
2E0000
030000
ENDCHAR
STARTCHAR OE
ENCODING 338
SWIDTH 918 0
DWIDTH 13 0
BBX 14 14 0 -3
BITMAP
00016300003400
002DEB906D78B0
00C823E8D201F1
05E101FF6006D0
0C7000FF202D50
3F2000FF400000
7D0002FAC41000
AA0004FABB4000
C80007F5000000
D7000CB0000100
C7003F90000800
9900BFD0009400
4D39B3EC8B7000
05A60027830000
ENDCHAR
STARTCHAR oe
ENCODING 339
SWIDTH 583 0
DWIDTH 8 0
BBX 10 7 0 -1
BITMAP
048218A000
4D5CB4E100
BD0B988002
E8DED70082
D05F501940
B9CAD8A300
1310330000
ENDCHAR
STARTCHAR Scaron
ENCODING 352
SWIDTH 474 0
DWIDTH 7 0
BBX 9 16 -1 -3
BITMAP
0000053350
000003DA10
0000255000
0009D6B800
008C105D00
00E5007C00
00E7009500
008E200000
001DD10000
0002E80000
00007D0000
01003E0000
6D002D0000
9D00780000
4F87C10000
05A8100000
ENDCHAR
STARTCHAR scaron
ENCODING 353
SWIDTH 351 0
DWIDTH 5 0
BBX 5 10 0 -1
BITMAP
053260
02DA10
002000
06F200
0CC000
38E200
609800
354C00
7D9500
063000
ENDCHAR
STARTCHAR Ydieresis
ENCODING 376
SWIDTH 532 0
DWIDTH 7 0
BBX 8 16 0 -3
BITMAP
00002010
0003C2D3
00120003
02F6009C
06E100D8
0AA001F3
0E5004E0
2F1009B0
5D001E70
7A007F30
7C15BD00
2CD94B00
00009600
3404D100
CEBE4000
38720000
ENDCHAR
STARTCHAR Zcaron
ENCODING 381
SWIDTH 455 0
DWIDTH 6 0
BBX 10 16 -2 -3
BITMAP
0000026061
000000BC40
0000123210
000AFFEED0
00063007D0
0000001E60
000000AC00
000006E200
00004E4000
0002E60000
000C900000
009C000000
03E2000000
0B61332000
1FEFFFE100
0532243000
ENDCHAR
STARTCHAR zcaron
ENCODING 382
SWIDTH 349 0
DWIDTH 5 0
BBX 8 16 -2 -7
BITMAP
00045260
0001DB20
00001000
00378700
00C88C00
00009500
0005B005
004EB483
00767C30
003AD500
05B2E100
2D16A000
961D4000
C49B0000
8FC10000
01000000
ENDCHAR
STARTCHAR circumflex
ENCODING 710
SWIDTH 567 0
DWIDTH 8 0
BBX 4 2 3 8
BITMAP
0580
78A6
ENDCHAR
STARTCHAR caron
ENCODING 711
SWIDTH 567 0
DWIDTH 8 0
BBX 4 3 3 7
BITMAP
7153
6D80
0100
ENDCHAR
STARTCHAR breve
ENCODING 728
SWIDTH 567 0
DWIDTH 8 0
BBX 4 3 3 7
BITMAP
4013
D6B4
2630
ENDCHAR
STARTCHAR dotaccent
ENCODING 729
SWIDTH 567 0
DWIDTH 8 0
BBX 2 2 4 8
BITMAP
11
B5
ENDCHAR
STARTCHAR ring
ENCODING 730
SWIDTH 567 0
DWIDTH 8 0
BBX 3 3 3 7
BITMAP
0430
1A90
0410
ENDCHAR
STARTCHAR ogonek
ENCODING 731
SWIDTH 567 0
DWIDTH 8 0
BBX 4 3 3 -2
BITMAP
4300
D553
5840
ENDCHAR
STARTCHAR tilde
ENCODING 732
SWIDTH 567 0
DWIDTH 8 0
BBX 5 2 2 8
BITMAP
022010
3BACA0
ENDCHAR
STARTCHAR hungarumlaut
ENCODING 733
SWIDTH 567 0
DWIDTH 8 0
BBX 5 3 2 7
BITMAP
015060
3C9BB0
221300
ENDCHAR
STARTCHAR endash
ENCODING 8211
SWIDTH 353 0
DWIDTH 5 0
BBX 6 2 -1 3
BITMAP
1BDDD8
132110
ENDCHAR
STARTCHAR emdash
ENCODING 8212
SWIDTH 508 0
DWIDTH 7 0
BBX 8 2 -1 3
BITMAP
1CDEEEDA
03221232
ENDCHAR
STARTCHAR quoteleft
ENCODING 8216
SWIDTH 155 0
DWIDTH 2 0
BBX 3 4 0 6
BITMAP
0310
1A00
5F30
2700
ENDCHAR
STARTCHAR quoteright
ENCODING 8217
SWIDTH 154 0
DWIDTH 2 0
BBX 3 4 0 6
BITMAP
0520
1F70
0930
0400
ENDCHAR
STARTCHAR quotesinglbase
ENCODING 8218
SWIDTH 188 0
DWIDTH 3 0
BBX 3 4 -1 -2
BITMAP
1500
6F20
1B00
3200
ENDCHAR
STARTCHAR quotedblleft
ENCODING 8220
SWIDTH 289 0
DWIDTH 4 0
BBX 5 4 0 6
BITMAP
031400
1A2900
5FAF10
273600
ENDCHAR
STARTCHAR quotedblright
ENCODING 8221
SWIDTH 288 0
DWIDTH 4 0
BBX 5 4 0 6
BITMAP
063620
1FAF50
092A10
041300
ENDCHAR
STARTCHAR quotedblbase
ENCODING 8222
SWIDTH 323 0
DWIDTH 5 0
BBX 4 4 -1 -2
BITMAP
1515
6FAF
1B2A
3241
ENDCHAR
STARTCHAR bullet
ENCODING 8226
SWIDTH 180 0
DWIDTH 3 0
BBX 4 4 -1 2
BITMAP
0360
0DF2
2FE1
0840
ENDCHAR
STARTCHAR ellipsis
ENCODING 8230
SWIDTH 614 0
DWIDTH 9 0
BBX 8 2 -1 -1
BITMAP
4E56F29E
14023032
ENDCHAR
STARTCHAR perthousand
ENCODING 8240
SWIDTH 851 0
DWIDTH 12 0
BBX 12 12 0 -1
BITMAP
001000020000
07BB006A0000
2C0B22C10000
670D1C300000
686987000000
1994B0000000
001C28701870
00979795A6A3
04C1D078C094
1D32B0C6A0C1
9900DB81DB70
300012001200
ENDCHAR
STARTCHAR guilsinglleft
ENCODING 8249
SWIDTH 202 0
DWIDTH 3 0
BBX 4 7 -1 -1
BITMAP
0013
01B2
0B40
6B00
1D10
0570
0020
ENDCHAR
STARTCHAR guilsinglright
ENCODING 8250
SWIDTH 202 0
DWIDTH 3 0
BBX 4 7 -1 -1
BITMAP
0400
0A30
04B0
01E1
0B50
8600
2000
ENDCHAR
STARTCHAR fraction
ENCODING 8260
SWIDTH 600 0
DWIDTH 8 0
BBX 9 12 0 -1
BITMAP
0000000120
0000002D20
000000B500
0000079000
00003C0000
0000C30000
0008700000
003C000000
00C3000000
0880000000
4E10000000
2100000000
ENDCHAR
STARTCHAR Euro
ENCODING 8364
SWIDTH 334 0
DWIDTH 5 0
BBX 7 9 -1 1
BITMAP
00001100
0007AB20
006B0420
00E20000
2DDA9000
4DDA5000
2A400000
08406100
01996000
ENDCHAR
STARTCHAR minus
ENCODING 8722
SWIDTH 353 0
DWIDTH 5 0
BBX 6 2 -1 3
BITMAP
1BDDD8
132110
ENDCHAR
STARTCHAR fi
ENCODING 64257
SWIDTH 549 0
DWIDTH 8 0
BBX 11 17 -2 -7
BITMAP
0001A4000000
0000F602C000
0001F3026000
0004D0000000
000780051000
000B404E0000
002FA8CA0030
00DA10B50560
00D900D25900
00EA709C9000
03B0D2020000
0780A5000000
0B40B4000000
0E12E1000000
3D1C70000000
4FDA00000000
085000000000
ENDCHAR
STARTCHAR fl
ENCODING 64258
SWIDTH 516 0
DWIDTH 7 0
BBX 10 17 -2 -7
BITMAP
0001A40182
0000F602F3
0001F305E0
0004D008A0
0007800C60
000B401F30
002FA9AE00
00DA108A00
00D900B600
00EA70E200
03B0D23000
0780A50000
0B40B40000
0E12E10000
3D1C700000
4FDA000000
0850000000
ENDCHAR
STARTCHAR .notdef
ENCODING -1
SWIDTH 280 0
DWIDTH 4 0
BBX 1 1 0 0
BITMAP
00
ENDCHAR
ENDFONT
